<svg xmlns="http://www.w3.org/2000/svg" width="344" height="62" viewBox="0 0 344 62">
  <defs>
    <style>
      .cls-1 {
        fill: #ffe600;
      }

      .cls-1, .cls-2, .cls-3 {
        fill-rule: evenodd;
      }

      .cls-2 {
        fill: #19c3f0;
      }

      .cls-3 {
        fill: #fff;
        stroke: #fff;
        stroke-width: 0.459px;
      }
    </style>
  </defs>
  <path id="Elipse1" class="cls-1" d="M30.806,0.463A30.768,30.768,0,1,1,0,31.231,30.787,30.787,0,0,1,30.806.463Z"/>
  <path id="Elipse2" class="cls-2" d="M67.441,0.463a30.768,30.768,0,1,1,0,61.535c-17.014,0-1.025-13.775-1.025-30.768S50.427,0.463,67.441.463Z"/>
  <path id="TAPRIGHT" class="cls-3" d="M115.27,51.611h2.878l6.2-31.717h12.1l0.488-2.631H109.9l-0.488,2.631h12.049Zm42.343,0h2.878l-8.537-34.542H150.1L128.149,51.611h3.317l5.707-9.062h18.2Zm-7.22-30.255,2.049,8.818,2.195,9.744H138.978l5.952-9.744Zm32.634-4.092H172.1l-6.683,34.348h2.829l2.195-11.449h11.513c8.391,0,13.269-5.213,13.269-13.2C195.223,20.918,191.076,17.264,183.027,17.264Zm-1.171,20.267H170.978l3.415-17.637h8.1c7.073,0,9.8,3.021,9.8,7.406C192.3,33.585,188.637,37.531,181.856,37.531ZM226.3,26.91c0-5.6-3.61-9.646-12.245-9.646H203.222l-6.683,34.348h2.829l2.244-11.547h12l6.1,11.547h3.171l-6.293-11.888C222.783,38.457,226.3,33.683,226.3,26.91Zm-13.61,10.524H202.1l3.415-17.539h8.146c6.878,0,9.708,3.021,9.708,7.357C223.369,33.39,219.564,37.434,212.686,37.434Zm16.1,14.178h2.926l6.684-34.348h-2.927Zm29.268-14.178h12.684l-1.757,9.159c-2.731,2.046-6.488,2.777-9.951,2.777-8.244,0-14.2-4.482-14.2-13.106,0-9.452,6.049-16.76,15.562-16.76,4.732,0,9.073,1.559,12.1,5.067l2.049-1.9c-3.366-4.044-8.488-5.846-14.05-5.846-11.317,0-18.537,8.234-18.537,19.439,0,10.036,6.927,15.785,17.123,15.785,4.439,0,9.268-1.072,12.39-3.9L274,34.8H258.539ZM277.27,51.611h2.83l2.78-14.324h20.976l-2.829,14.324h2.781l6.683-34.348H307.71l-3.366,17.393H283.368l3.415-17.393h-2.83Zm44.635,0h2.878l6.195-31.717h12.1l0.488-2.631H316.539l-0.488,2.631H328.1Z"/>
</svg>
